<?xml version="1.0" encoding="utf-8"?>
<svg version="1.1" xmlns:xlink="http://www.w3.org/1999/xlink" width="15px" height="15px" xmlns="http://www.w3.org/2000/svg">
  <g transform="matrix(1 0 0 1 -802 -74 )">
    <path d="M 12.162388392857139 7.5376674107143335  C 12.234933035714292 7.546037946428556  12.293526785714292 7.580915178571445  12.338169642857139 7.64229910714289  L 12.664620535714278 8.069196428571445  C 12.709263392857139 8.13058035714289  12.72739955357143 8.196149553571445  12.719029017857139 8.26590401785711  C 12.710658482142861 8.33565848214289  12.67857142857143 8.39285714285711  12.622767857142861 8.4375  C 12.3828125 8.62723214285711  12.029854910714292 8.90206473214289  11.563895089285722 9.26199776785711  C 11.097935267857139 9.621930803571445  10.689174107142861 9.93722098214289  10.337611607142861 10.207868303571445  C 9.986049107142861 10.478515625  9.799107142857139 10.622209821428555  9.776785714285722 10.63895089285711  C 9.559151785714278 10.817522321428555  9.39174107142857 10.95145089285711  9.27455357142857 11.04073660714289  C 9.15736607142857 11.130022321428555  8.988560267857139 11.24441964285711  8.768136160714278 11.383928571428555  C 8.54771205357143 11.5234375  8.334263392857139 11.62527901785711  8.12779017857143 11.689453125  C 7.9213169642857215 11.75362723214289  7.714843749999999 11.785714285714334  7.508370535714292 11.785714285714334  L 7.5 11.785714285714334  L 7.491629464285708 11.785714285714334  C 7.28515625 11.785714285714334  7.078683035714292 11.75362723214289  6.872209821428569 11.689453125  C 6.665736607142861 11.62527901785711  6.453683035714292 11.5234375  6.236049107142861 11.383928571428555  C 6.018415178571431 11.24441964285711  5.848214285714292 11.12862723214289  5.725446428571431 11.036551339285666  C 5.602678571428569 10.944475446428555  5.435267857142861 10.811941964285666  5.223214285714292 10.63895089285711  C 5.1953125 10.616629464285666  5.013950892857139 10.475725446428555  4.679129464285708 10.216238839285666  C 4.344308035714292 9.95675223214289  3.943917410714292 9.647042410714334  3.477957589285708 9.287109375  C 3.011997767857139 8.927176339285666  2.670200892857139 8.663504464285666  2.452566964285708 8.49609375  C 2.391183035714292 8.45145089285711  2.3563058035714306 8.39425223214289  2.347935267857139 8.32449776785711  C 2.339564732142861 8.254743303571445  2.357700892857139 8.18917410714289  2.40234375 8.127790178571445  L 2.7120535714285694 7.692522321428556  C 2.7566964285714306 7.6311383928571095  2.816685267857139 7.594866071428555  2.892020089285708 7.58370535714289  C 2.967354910714292 7.5725446428571095  3.035714285714292 7.59207589285711  3.097098214285708 7.64229910714289  C 3.621651785714292 8.049665178571445  4.475446428571431 8.708147321428555  5.658482142857139 9.617745535714334  C 5.686383928571431 9.640066964285666  5.807756696428569 9.737723214285666  6.022600446428569 9.910714285714334  C 6.237444196428569 10.08370535714289  6.40625 10.213448660714334  6.529017857142861 10.299944196428555  C 6.651785714285708 10.38643973214289  6.809430803571431 10.477120535714334  7.001953125 10.57198660714289  C 7.194475446428569 10.666852678571445  7.357700892857139 10.714285714285666  7.491629464285708 10.714285714285666  L 7.5 10.714285714285666  L 7.508370535714292 10.714285714285666  C 7.642299107142861 10.714285714285666  7.805524553571431 10.666852678571445  7.998046875 10.57198660714289  C 8.19056919642857 10.477120535714334  8.348214285714292 10.38643973214289  8.470982142857139 10.299944196428555  C 8.59375 10.213448660714334  8.76255580357143 10.08370535714289  8.97739955357143 9.910714285714334  C 9.19224330357143 9.737723214285666  9.31361607142857 9.640066964285666  9.341517857142861 9.617745535714334  C 10.78125 8.512834821428555  11.654575892857139 7.8376116071428905  11.961495535714278 7.59207589285711  C 12.022879464285722 7.547433035714334  12.08984375 7.529296875  12.162388392857139 7.5376674107143335  Z M 13.849051339285722 13.849051339285666  C 13.902064732142861 13.796037946428555  13.92857142857143 13.733258928571445  13.92857142857143 13.660714285714334  L 13.92857142857143 5.89285714285711  C 13.426339285714278 5.4296875  12.982700892857139 5.041852678571445  12.59765625 4.729352678571445  C 12.08984375 4.31640625  11.004464285714292 3.4681919642856656  9.341517857142861 2.184709821428555  C 9.324776785714278 2.1735491071428896  9.204799107142861 2.0758928571428896  8.98158482142857 1.8917410714285552  C 8.758370535714292 1.7075892857143344  8.588169642857139 1.5736607142856656  8.470982142857139 1.4899553571428896  C 8.353794642857139 1.40625  8.197544642857139 1.3155691964285552  8.002232142857139 1.2179129464285552  C 7.806919642857138 1.1202566964285552  7.642299107142861 1.0714285714285552  7.508370535714292 1.0714285714285552  L 7.5 1.0714285714285552  L 7.491629464285708 1.0714285714285552  C 7.357700892857139 1.0714285714285552  7.193080357142861 1.1202566964285552  6.997767857142861 1.2179129464285552  C 6.802455357142861 1.3155691964285552  6.646205357142861 1.40625  6.529017857142861 1.4899553571428896  C 6.411830357142861 1.5736607142856656  6.241629464285708 1.7075892857143344  6.018415178571431 1.8917410714285552  C 5.795200892857139 2.0758928571428896  5.675223214285708 2.1735491071428896  5.658482142857139 2.184709821428555  C 4.458705357142861 3.1110491071428896  3.578404017857139 3.796037946428555  3.017578125 4.239676339285666  C 2.456752232142861 4.68331473214289  2.095424107142861 4.973493303571445  1.93359375 5.110212053571445  C 1.7717633928571388 5.246930803571445  1.54296875 5.45479910714289  1.2472098214285694 5.733816964285666  C 1.1690848214285694 5.80078125  1.1104910714285694 5.85379464285711  1.0714285714285694 5.89285714285711  L 1.0714285714285694 13.660714285714334  C 1.0714285714285694 13.733258928571445  1.0979352678571388 13.796037946428555  1.1509486607142918 13.849051339285666  C 1.2039620535714306 13.90206473214289  1.2667410714285694 13.928571428571445  1.3392857142857082 14  L 13.660714285714278 14  C 13.73325892857143 13.928571428571445  13.79603794642857 13.90206473214289  13.849051339285722 13.849051339285666  Z M 14.656808035714278 5.106026785714334  C 14.88560267857143 5.31808035714289  15 5.58035714285711  15 5.89285714285711  L 15 13.660714285714334  C 15 14.02901785714289  14.868861607142861 14.344308035714334  14.60658482142857 14.606584821428555  C 14.344308035714292 14.86886160714289  14.029017857142861 15  13.660714285714278 15  L 1.3392857142857082 15  C 0.9709821428571388 15  0.6556919642857082 14.86886160714289  0.3934151785714306 14.606584821428555  C 0.1311383928571388 14.344308035714334  0 14.02901785714289  0 13.660714285714334  L 0 5.89285714285711  C 0 5.58035714285711  0.1143973214285694 5.31808035714289  0.3431919642857082 5.106026785714334  C 1.0295758928571388 4.469866071428555  2.006138392857139 3.659319196428555  3.272879464285708 2.6743861607143344  C 4.539620535714292 1.689453125  5.189732142857139 1.1830357142856656  5.223214285714292 1.1551339285714448  C 5.424107142857139 0.9877232142856656  5.588727678571431 0.8551897321428896  5.717075892857139 0.7575334821428896  C 5.845424107142861 0.6598772321428896  6.017020089285708 0.5426897321428896  6.231863839285708 0.4059709821428896  C 6.446707589285708 0.2692522321428896  6.658761160714292 0.16741071428566556  6.868024553571431 0.10044642857144481  C 7.077287946428569 0.033482142857110375  7.28515625 0  7.491629464285708 0  L 7.5 0  L 7.508370535714292 0  C 7.714843749999999 0  7.922712053571431 0.033482142857110375  8.13197544642857 0.10044642857144481  C 8.341238839285722 0.16741071428566556  8.553292410714292 0.2692522321428896  8.768136160714278 0.4059709821428896  C 8.982979910714292 0.5426897321428896  9.154575892857139 0.6598772321428896  9.282924107142861 0.7575334821428896  C 9.41127232142857 0.8551897321428896  9.575892857142861 0.9877232142856656  9.776785714285722 1.1551339285714448  C 10.01674107142857 1.3560267857143344  10.45200892857143 1.6964285714285552  11.082589285714278 2.1763392857143344  C 11.713169642857139 2.65625  12.34375 3.1501116071428896  12.974330357142861 3.6579241071428896  C 13.604910714285722 4.16573660714289  14.165736607142861 4.6484375  14.656808035714278 5.106026785714334  Z " fill-rule="nonzero" fill="#aeaeae" stroke="none" transform="matrix(1 0 0 1 802 74 )" />
  </g>
</svg>