<?xml version="1.0" encoding="utf-8"?>
<svg version="1.1" xmlns:xlink="http://www.w3.org/1999/xlink" width="19px" height="18px" xmlns="http://www.w3.org/2000/svg">
  <g transform="matrix(1 0 0 1 -16 -157 )">
    <path d="M 8.760546642899612 5.879396984924597  C 9.182016240839744 5.4572864321607994  9.39275103980981 4.94472361809045  9.39275103980981 4.341708542713548  C 9.39275103980981 3.7386934673367023  9.182016240839744 3.2261306532663525  8.760546642899612 2.8040201005024983  C 8.339077044959367 2.381909547738701  7.827292533174841 2.170854271356802  7.225193107546034 2.170854271356802  C 6.623093681917226 2.170854271356802  6.111309170132699 2.381909547738701  5.689839572192568 2.8040201005024983  C 5.268369974252323 3.2261306532663525  5.0576351752822575 3.7386934673367023  5.0576351752822575 4.341708542713548  C 5.0576351752822575 4.658291457286452  5.129134482075642 4.971105527638201  5.272133095662525 5.280150753768851  C 4.963557140027774 5.136934673366852  4.651218062982821 5.065326633165853  4.3351158645276655 5.065326633165853  C 3.733016438898744 5.065326633165853  3.2212319271143315 5.2763819095477515  2.7997623291740865 5.698492462311549  C 2.3782927312339552 6.120603015075403  2.167557932263776 6.633165829145753  2.167557932263776 7.236180904522598  C 2.167557932263776 7.8391959798995  2.3782927312339552 8.35175879396985  2.7997623291740865 8.773869346733647  C 3.2212319271143315 9.195979899497502  3.733016438898744 9.4070351758794  4.3351158645276655 9.4070351758794  C 4.937215290156473 9.4070351758794  5.4489998019409995 9.195979899497502  5.870469399881131 8.773869346733647  C 6.291938997821376 8.35175879396985  6.502673796791441 7.8391959798995  6.502673796791441 7.236180904522598  C 6.502673796791441 6.91959798994975  6.431174489998057 6.606783919598001  6.288175876411174 6.297738693467352  C 6.596751832045925 6.4409547738693504  6.909090909090878 6.51256281407035  7.225193107546034 6.51256281407035  C 7.827292533174841 6.51256281407035  8.339077044959367 6.301507537688451  8.760546642899612 5.879396984924597  Z M 18.67825311942954 11.837939698492448  C 18.89275103980981 12.086683417085453  19 12.24120603015075  19 12.301507537688451  C 19 12.429648241206053  18.81560705090112 12.678391959799  18.446821152703478 13.047738693467352  C 18.078035254505835 13.417085427135703  17.829669241433976 13.60175879396985  17.701723113487787 13.60175879396985  C 17.633986928104605 13.60175879396985  17.526737967914414 13.541457286432149  17.379976232917443 13.420854271356802  C 17.233214497920358 13.300251256281399  17.095860566448778 13.175879396984897  16.967914438502703 13.047738693467352  C 16.839968310556515 12.91959798994975  16.695088136264644 12.768844221105553  16.533273915626864 12.595477386934647  C 16.371459694989085 12.422110552763797  16.279263220439702 12.324120603015103  16.256684491978604 12.301507537688451  L 15.172905525846659 13.386934673366852  L 17.656565656565704 15.874371859296502  C 17.86730045553577 16.0854271356784  17.972667855020745 16.341708542713548  17.972667855020745 16.643216080402  C 17.972667855020745 16.959798994974904  17.825906120023774 17.265075376884397  17.532382650029717 17.55904522613065  C 17.23885918003566 17.853015075376902  16.934046345810998 18  16.617944147355956 18  C 16.316894434541496 18  16.061002178649233 17.89447236180905  15.850267379679167 17.683417085427152  L 8.275103980986387 10.096733668341699  C 6.9504852446028735 11.084170854271349  5.576945929887074 11.577889447236203  4.154486036838989 11.577889447236203  C 2.927708457120275 11.577889447236203  1.928599722717422 11.191582914572848  1.1571598336304305 10.418969849246253  C 0.38571994454343894 9.6463567839196  0 8.645728643216103  0 7.417085427135703  C 0 6.211055276381899  0.35749653396715075 5.031407035175903  1.0724896019013386 3.8781407035176017  C 1.78748266983564 2.7248743718593005  2.7207367795602977 1.7902010050250965  3.872251931075425 1.0741206030151034  C 5.023767082590666 0.35804020100499656  6.201624083976982 0  7.40582293523471 0  C 8.632600514953424 0  9.631709249356275 0.38630653266329773  10.403149138443268 1.15891959798995  C 11.17458902753026 1.9315326633166023  11.560308972073699 2.9321608040201  11.560308972073699 4.1608040201005  C 11.560308972073699 5.585427135678401  11.06734006734007 6.961055276381899  10.08140225787281 8.28768844221105  L 14.089126559714828 12.301507537688451  L 15.172905525846659 11.21608040201005  C 15.150326797385675 11.193467336683398  15.052485640720988 11.101130653266353  14.879382055852602 10.9390703517588  C 14.706278470984332 10.77701005025125  14.555753614577156 10.631909547738701  14.427807486630968 10.5037688442211  C 14.299861358684893 10.375628140703498  14.175678352148907 10.238065326633148  14.055258467023123 10.09108040201005  C 13.934838581897452 9.944095477386952  13.87462863933456 9.836683417085453  13.87462863933456 9.768844221105553  C 13.87462863933456 9.640703517587951  14.059021588433325 9.391959798994947  14.427807486630968 9.022613065326652  C 14.796593384828725 8.653266331658301  15.044959397900584 8.468592964824097  15.172905525846659 8.468592964824097  C 15.270746682511344 8.468592964824097  15.357298474945537 8.506281407035203  15.432560903149124 8.581658291457302  C 15.477718360071322 8.62688442211055  15.650821944939594 8.79459798994975  15.951871657754056 9.084798994974904  C 16.2529213705684 9.375  16.561497326203153 9.674623115577901  16.877599524658308 9.983668341708551  C 17.193701723113463 10.2927135678392  17.519211725094124 10.616834170854247  17.854129530600176 10.956030150753747  C 18.189047336106114 11.295226130653248  18.463755199049274 11.5891959798995  18.67825311942954 11.837939698492448  Z " fill-rule="nonzero" fill="#7d91a4" stroke="none" transform="matrix(1 0 0 1 16 157 )" />
  </g>
</svg>