<?xml version="1.0" encoding="utf-8"?>
<svg version="1.1" xmlns:xlink="http://www.w3.org/1999/xlink" width="18px" height="18px" xmlns="http://www.w3.org/2000/svg">
  <g transform="matrix(1 0 0 1 -17 -69 )">
    <path d="M 5.504464285714285 0.7131696428571388  C 6.616071428571431 0.2377232142857082  7.78125 0  9 0  C 10.21875 0  11.38392857142857 0.2377232142857082  12.495535714285715 0.7131696428571388  C 13.607142857142861 1.1886160714285694  14.564732142857139 1.828125  15.36830357142857 2.6316964285714306  C 16.171875 3.435267857142861  16.81138392857143 4.392857142857139  17.28683035714286 5.504464285714278  C 17.762276785714292 6.616071428571431  18 7.78125  18 9  C 18 10.21205357142857  17.76395089285714 11.37388392857143  17.29185267857143 12.485491071428555  C 16.819754464285715 13.597098214285722  16.18191964285714 14.5546875  15.378348214285715 15.358258928571445  C 14.574776785714285 16.16183035714286  13.6171875 16.80301339285714  12.505580357142861 17.281808035714278  C 11.393973214285715 17.760602678571445  10.22544642857143 18  9 18  C 7.774553571428569 18  6.606026785714285 17.762276785714278  5.494419642857139 17.28683035714286  C 4.3828125 16.811383928571445  3.4268973214285694 16.17020089285714  2.6266741071428577 15.36328125  C 1.8264508928571423 14.556361607142861  1.188616071428573 13.598772321428584  0.7131696428571423 12.490513392857139  C 0.2377232142857153 11.382254464285708  0 10.21875  0 9  C 0 7.78125  0.2377232142857153 6.616071428571431  0.7131696428571423 5.504464285714278  C 1.188616071428573 4.392857142857139  1.828125 3.435267857142861  2.6316964285714306 2.6316964285714306  C 3.435267857142854 1.828125  4.392857142857146 1.1886160714285694  5.504464285714285 0.7131696428571388  Z M 12.143973214285715 10.285714285714278  C 13.75111607142857 10.285714285714278  14.775669642857139 11.380580357142861  15.21763392857143 13.5703125  C 16.215401785714292 12.197544642857139  16.714285714285715 10.674107142857139  16.714285714285715 9  C 16.714285714285715 7.955357142857139  16.51004464285714 6.957589285714278  16.1015625 6.006696428571431  C 15.693080357142861 5.055803571428569  15.143973214285722 4.235491071428569  14.45424107142857 3.5457589285714306  C 13.76450892857143 2.856026785714292  12.94419642857143 2.306919642857139  11.99330357142857 1.8984375  C 11.042410714285715 1.4899553571428612  10.044642857142861 1.2857142857142918  9 1.2857142857142918  C 7.955357142857139 1.2857142857142918  6.957589285714285 1.4899553571428612  6.006696428571431 1.8984375  C 5.055803571428569 2.306919642857139  4.235491071428569 2.856026785714292  3.5457589285714306 3.5457589285714306  C 2.8560267857142847 4.235491071428569  2.3069196428571423 5.055803571428569  1.8984375 6.006696428571431  C 1.4899553571428577 6.957589285714278  1.2857142857142847 7.955357142857139  1.2857142857142847 9  C 1.2857142857142847 10.674107142857139  1.7845982142857153 12.197544642857139  2.7823660714285694 13.5703125  C 3.224330357142854 11.380580357142861  4.248883928571431 10.285714285714278  5.856026785714285 10.285714285714278  C 6.733258928571431 11.142857142857139  7.78125 11.57142857142857  9 11.57142857142857  C 10.21875 11.57142857142857  11.26674107142857 11.142857142857139  12.143973214285715 10.285714285714278  Z M 11.727120535714285 9.798549107142861  C 12.48046875 9.045200892857139  12.857142857142861 8.136160714285722  12.857142857142861 7.071428571428569  C 12.857142857142861 6.006696428571431  12.48046875 5.09765625  11.727120535714285 4.344308035714278  C 10.97377232142857 3.5909598214285694  10.064732142857139 3.214285714285708  9 3.214285714285708  C 7.935267857142861 3.214285714285708  7.026227678571431 3.5909598214285694  6.272879464285715 4.344308035714278  C 5.51953125 5.09765625  5.142857142857139 6.006696428571431  5.142857142857139 7.071428571428569  C 5.142857142857139 8.136160714285722  5.51953125 9.045200892857139  6.272879464285715 9.798549107142861  C 7.026227678571431 10.55189732142857  7.935267857142861 10.92857142857143  9 10.92857142857143  C 10.064732142857139 10.92857142857143  10.97377232142857 10.55189732142857  11.727120535714285 9.798549107142861  Z " fill-rule="nonzero" fill="#7d91a4" stroke="none" transform="matrix(1 0 0 1 17 69 )" />
  </g>
</svg>