<?xml version="1.0" encoding="utf-8"?>
<svg version="1.1" xmlns:xlink="http://www.w3.org/1999/xlink" width="15px" height="15px" xmlns="http://www.w3.org/2000/svg">
  <g transform="matrix(1 0 0 1 -640 -76 )">
    <path d="M 14.96803977272728 11.62286931818187  C 14.989346590909093 11.672585227272748  15 11.747159090909122  15 11.846590909090878  C 15 12.038352272727252  14.96448863636364 12.288707386363626  14.893465909090907 12.59765625  C 14.822443181818187 12.906605113636374  14.747869318181813 13.149857954545496  14.669744318181813 13.327414772727252  C 14.520596590909093 13.682528409090878  14.087357954545453 14.058948863636374  13.370028409090907 14.456676136363626  C 12.70241477272728 14.818892045454504  12.041903409090907 15  11.388494318181813 15  C 11.196732954545453 15  11.008522727272734 14.987571022727252  10.82386363636364 14.96271306818187  C 10.639204545454547 14.937855113636374  10.435014204545453 14.893465909090878  10.21129261363636 14.829545454545496  C 9.98757102272728 14.765625  9.82066761363636 14.714133522727252  9.71058238636364 14.675071022727252  C 9.600497159090907 14.636008522727252  9.403409090909093 14.563210227272748  9.119318181818187 14.456676136363626  C 8.83522727272728 14.350142045454504  8.661221590909093 14.286221590909122  8.59730113636364 14.264914772727252  C 7.901278409090907 14.016335227272748  7.279829545454547 13.721590909090878  6.732954545454547 13.38068181818187  C 5.8309659090909065 12.819602272727252  4.8934659090909065 12.05255681818187  3.9204545454545467 11.079545454545496  C 2.947443181818187 10.106534090909122  2.1803977272727337 9.169034090909122  1.619318181818187 8.267045454545496  C 1.2784090909090935 7.720170454545496  0.9836647727272664 7.098721590909122  0.7350852272727337 6.402698863636374  C 0.7137784090909065 6.338778409090878  0.6498579545454533 6.164772727272748  0.5433238636363598 5.88068181818187  C 0.43678977272726627 5.596590909090878  0.36399147727273373 5.399502840909122  0.32492897727273373 5.289417613636374  C 0.28586647727273373 5.179332386363626  0.234375 5.012428977272748  0.17045454545454675 4.788707386363626  C 0.10653409090909349 4.564985795454504  0.06214488636364024 4.360795454545496  0.037286931818186986 4.176136363636374  C 0.012428977272733732 3.991477272727252  0 3.8032670454545046  0 3.61150568181813  C 0 2.958096590909122  0.18110795454545325 2.297585227272748  0.5433238636363598 1.629971590909122  C 0.9410511363636402 0.9126420454545041  1.3174715909090935 0.4794034090908781  1.6725852272727337 0.33025568181813014  C 1.8501420454545467 0.25213068181813014  2.0933948863636402 0.17755681818186986  2.40234375 0.10653409090912191  C 2.7112926136363598 0.03551136363637397  2.9616477272727337 0  3.1534090909090935 0  C 3.2528409090909065 0  3.3274147727272805 0.010653409090878085  3.377130681818187 0.03196022727274794  C 3.5049715909090935 0.07457386363637397  3.693181818181813 0.34446022727274794  3.9417613636363598 0.8416193181818699  C 4.01988636363636 0.9765625000000001  4.126420454545453 1.168323863636374  4.26136363636364 1.416903409090878  C 4.396306818181813 1.6654829545454959  4.5205965909090935 1.890980113636374  4.634232954545453 2.093394886363626  C 4.747869318181813 2.295809659090878  4.857954545454547 2.485795454545496  4.96448863636364 2.663352272727252  C 4.985795454545453 2.691761363636374  5.0479403409090935 2.780539772727252  5.150923295454547 2.9296875  C 5.25390625 3.078835227272748  5.330255681818187 3.20490056818187  5.3799715909090935 3.307883522727252  C 5.4296875 3.410866477272748  5.454545454545453 3.512073863636374  5.454545454545453 3.61150568181813  C 5.454545454545453 3.7535511363636256  5.353338068181813 3.9311079545454954  5.150923295454547 4.144176136363626  C 4.948508522727266 4.35724431818187  4.728338068181813 4.55255681818187  4.490411931818187 4.730113636363626  C 4.252485795454547 4.907670454545496  4.0323153409090935 5.09588068181813  3.829900568181813 5.29474431818187  C 3.6274857954545467 5.493607954545496  3.5262784090909065 5.656960227272748  3.5262784090909065 5.784801136363626  C 3.5262784090909065 5.848721590909122  3.5440340909090935 5.928622159090878  3.5795454545454533 6.024502840909122  C 3.615056818181813 6.120383522727252  3.6452414772727337 6.19318181818187  3.670099431818187 6.242897727272748  C 3.6949573863636402 6.292613636363626  3.7446732954545467 6.377840909090878  3.819247159090907 6.498579545454504  C 3.893821022727266 6.61931818181813  3.9346590909090935 6.686789772727252  3.9417613636363598 6.70099431818187  C 4.4815340909090935 7.67400568181813  5.099431818181813 8.508522727272748  5.795454545454547 9.204545454545496  C 6.4914772727272805 9.90056818181813  7.325994318181813 10.518465909090878  8.299005681818187 11.058238636363626  C 8.31321022727272 11.065340909090878  8.380681818181813 11.106178977272748  8.501420454545453 11.180752840909122  C 8.622159090909093 11.255326704545496  8.70738636363636 11.305042613636374  8.75710227272728 11.32990056818187  C 8.806818181818187 11.354758522727252  8.87961647727272 11.38494318181813  8.975497159090907 11.420454545454504  C 9.071377840909093 11.455965909090878  9.151278409090907 11.473721590909122  9.21519886363636 11.473721590909122  C 9.34303977272728 11.473721590909122  9.506392045454547 11.372514204545496  9.705255681818187 11.17009943181813  C 9.904119318181813 10.967684659090878  10.092329545454547 10.747514204545496  10.26988636363636 10.50958806818187  C 10.447443181818187 10.27166193181813  10.642755681818187 10.051491477272748  10.85582386363636 9.849076704545496  C 11.068892045454547 9.64666193181813  11.24644886363636 9.545454545454504  11.388494318181813 9.545454545454504  C 11.48792613636364 9.545454545454504  11.58913352272728 9.5703125  11.69211647727272 9.620028409090878  C 11.795099431818187 9.66974431818187  11.92116477272728 9.74609375  12.0703125 9.849076704545496  C 12.21946022727272 9.952059659090878  12.30823863636364 10.014204545454504  12.33664772727272 10.035511363636374  C 12.514204545454547 10.142045454545496  12.704190340909093 10.25213068181813  12.90660511363636 10.365767045454504  C 13.10901988636364 10.479403409090878  13.334517045454547 10.60369318181813  13.583096590909093 10.738636363636374  C 13.83167613636364 10.873579545454504  14.0234375 10.980113636363626  14.158380681818187 11.058238636363626  C 14.65553977272728 11.30681818181813  14.92542613636364 11.495028409090878  14.96803977272728 11.62286931818187  Z " fill-rule="nonzero" fill="#aeaeae" stroke="none" transform="matrix(1 0 0 1 640 76 )" />
  </g>
</svg>